HIERARCHY
ROOT Hips
{
	OFFSET 0.000000 88.474243 0.000000
	CHANNELS 6 Xposition Yposition Zposition Zrotation Yrotation Xrotation 
	JOINT Hips_Spine
	{
		OFFSET 0.000000 0.000000 0.000000
		CHANNELS 3 Zrotation Yrotation Xrotation
		JOINT Spine
		{
			OFFSET 0.005100 8.711998 -0.691000
			CHANNELS 3 Zrotation Yrotation Xrotation
			JOINT Spine1
			{
				OFFSET -0.009200 8.660301 -1.275000
				CHANNELS 3 Zrotation Yrotation Xrotation
				JOINT Spine2
				{
					OFFSET 0.006300 9.852501 -1.857000
					CHANNELS 3 Zrotation Yrotation Xrotation
					JOINT Spine2_Neck
					{
						OFFSET 0.000000 0.000000 0.000000
						CHANNELS 3 Zrotation Yrotation Xrotation
						JOINT Neck
						{
							OFFSET 0.016300 11.420799 -0.263300
							CHANNELS 3 Zrotation Yrotation Xrotation
							End Site #name: Head
							{
								OFFSET -0.019200 9.262405 2.362500
							}
						}
					}
					JOINT Spine2_LeftShoulder
					{
						OFFSET 0.000000 0.000000 0.000000
						CHANNELS 3 Zrotation Yrotation Xrotation
						JOINT LeftShoulder
						{
							OFFSET 5.616900 6.732201 -0.345700
							CHANNELS 3 Zrotation Yrotation Xrotation
							JOINT LeftArm
							{
								OFFSET 10.664888 -0.183372 -2.440700
								CHANNELS 3 Zrotation Yrotation Xrotation
								JOINT LeftForeArm
								{
									OFFSET 27.459126 0.000000 0.000000
									CHANNELS 3 Zrotation Yrotation Xrotation
									End Site #name: LeftHand
									{
										OFFSET 21.306858 0.000000 0.000000
									}
								}
							}
						}
					}
					JOINT Spine2_RightShoulder
					{
						OFFSET 0.000000 0.000000 0.000000
						CHANNELS 3 Zrotation Yrotation Xrotation
						JOINT RightShoulder
						{
							OFFSET -5.580300 6.737503 -0.344400
							CHANNELS 3 Zrotation Yrotation Xrotation
							JOINT RightArm
							{
								OFFSET -10.679335 -0.188484 -2.383900
								CHANNELS 3 Zrotation Yrotation Xrotation
								JOINT RightForeArm
								{
									OFFSET -27.503529 0.000000 0.000000
									CHANNELS 3 Zrotation Yrotation Xrotation
									End Site #name: RightHand
									{
										OFFSET -21.306808 0.000000 0.000000
									}
								}
							}
						}
					}
				}
			}
		}
	}
	JOINT Hips_LeftUpLeg
	{
		OFFSET 0.000000 0.000000 0.000000
		CHANNELS 3 Zrotation Yrotation Xrotation
		JOINT LeftUpLeg
		{
			OFFSET 6.857700 -6.739601 0.312100
			CHANNELS 3 Zrotation Yrotation Xrotation
			JOINT LeftLeg
			{
				OFFSET -0.367590 -34.731552 -4.572400
				CHANNELS 3 Zrotation Yrotation Xrotation
				End Site #name: LeftFoot
				{
					OFFSET 0.367590 -34.656704 -6.067400
				}
			}
		}
	}
	JOINT Hips_RightUpLeg
	{
		OFFSET 0.000000 0.000000 0.000000
		CHANNELS 3 Zrotation Yrotation Xrotation
		JOINT RightUpLeg
		{
			OFFSET -6.876100 -6.733299 0.301000
			CHANNELS 3 Zrotation Yrotation Xrotation
			JOINT RightLeg
			{
				OFFSET 0.347353 -34.795158 -4.515900
				CHANNELS 3 Zrotation Yrotation Xrotation
				End Site #name: RightFoot
				{
					OFFSET -0.347353 -34.589367 -6.070300
				}
			}
		}
	}
}
MOTION
Frames: 12
Frame Time: 0.041667
4.012345 0.256565 -4.195794 175.618712 2.840518 -179.748712 0.000000 -0.000000 0.000000 1.393398 -5.008997 5.992014 -0.029930 -2.333319 4.644698 0.000000 0.000000 0.000000 1.106433 -2.194174 4.836757 2.018198 -24.626466 -1.650675 0.062539 -1.934195 1.719367 0.094001 -2.520355 -1.396738 -78.192299 -23.715597 18.385692 9.028849 -25.322675 4.850175 0.323096 -3.443847 2.852599 18.105525 18.232928 4.311116 54.745961 20.396403 5.587629 -167.822498 84.835224 -163.815723 0.000000 0.000000 -0.000000 -2.122617 15.848117 -7.949314 -0.765426 -30.618761 -12.554536 0.000000 0.000000 -0.000000 -4.398265 -43.170603 -12.438936 -14.851410 -11.372641 22.839388 
4.080068 0.288049 -4.309649 175.663982 3.050804 -179.823720 0.000000 -0.000000 0.000000 1.314240 -4.949719 6.032857 -0.080891 -2.271997 4.534781 0.000000 0.000000 0.000000 1.055143 -2.151685 4.756447 1.907021 -24.210380 -1.720467 0.032108 -1.884558 1.677096 0.047335 -2.683474 -1.328657 -78.361242 -24.204872 18.991011 9.141816 -25.106593 4.630871 0.286101 -3.382200 2.738635 17.967119 18.264553 4.301462 54.669296 20.452603 5.815984 -162.403765 86.154380 -158.356784 0.000000 0.000000 -0.000000 -2.122966 15.642847 -8.019670 -0.801946 -30.677309 -12.410907 0.000000 0.000000 -0.000000 -4.315305 -42.401060 -12.337151 -14.404570 -10.923957 22.614838 
4.147846 0.321885 -4.420743 175.696845 3.351163 -179.889993 0.000000 -0.000000 0.000000 1.232378 -4.884383 6.086397 -0.135620 -2.210447 4.424526 0.000000 0.000000 0.000000 1.002687 -2.107021 4.677273 1.802005 -23.746437 -1.879541 -0.005517 -1.832731 1.635645 0.008016 -2.914473 -1.237317 -78.527749 -24.726074 19.474478 9.265057 -25.051515 4.415503 0.246512 -3.317802 2.621255 17.837623 18.320833 4.295828 54.584220 20.495091 6.043660 -151.793423 87.366420 -147.697126 0.000000 0.000000 -0.000000 -2.118898 15.433002 -8.107395 -0.835391 -30.739564 -12.277901 0.000000 -0.000000 -0.000000 -4.184442 -41.658473 -12.269209 -13.894866 -10.305570 22.368346 
4.217377 0.357280 -4.529319 175.709079 3.610083 -179.944750 0.000000 -0.000000 0.000000 1.148493 -4.824219 6.146842 -0.193983 -2.148518 4.322179 0.000000 0.000000 0.000000 0.945475 -2.063370 4.604002 1.695536 -23.237646 -2.134336 -0.046993 -1.778208 1.600316 -0.029712 -3.183617 -1.135722 -78.655802 -25.246331 19.813699 9.375605 -25.239459 4.185164 0.205706 -3.256921 2.508896 17.733828 18.403468 4.290176 54.404961 20.570072 6.235161 -130.473917 88.257992 -126.325294 0.000000 0.000000 -0.000000 -2.104549 15.226644 -8.252915 -0.898125 -30.814014 -12.055157 0.000000 -0.000000 -0.000000 -4.027165 -41.064888 -12.233827 -13.492593 -9.691588 22.148476 
4.289514 0.393093 -4.636552 175.699065 3.700447 -179.983519 0.000000 -0.000000 0.000000 1.053638 -4.783445 6.194604 -0.255955 -2.091285 4.234052 0.000000 0.000000 0.000000 0.886322 -2.021442 4.536702 1.570388 -22.666693 -2.450010 -0.090510 -1.724552 1.574355 -0.066964 -3.508952 -1.016449 -78.691322 -25.753995 19.979958 9.504314 -25.575035 3.956039 0.164663 -3.201829 2.408409 17.641741 18.509506 4.279517 54.252326 20.624999 6.448670 -98.939197 88.580759 -94.737046 0.000000 0.000000 -0.000000 -2.072375 15.020709 -8.469337 -0.997500 -30.806492 -11.717265 0.000000 -0.000000 -0.000000 -3.859824 -40.612821 -12.256389 -13.122327 -9.048184 21.994842 
4.364934 0.428890 -4.744840 175.675800 3.618357 179.995328 0.000000 -0.000000 0.000000 0.932411 -4.772225 6.283356 -0.321751 -2.039505 4.163646 0.000000 0.000000 0.000000 0.820588 -1.981571 4.486111 1.460563 -22.049139 -2.793730 -0.138209 -1.673700 1.558933 -0.108622 -3.889914 -0.881876 -78.627149 -26.272524 19.952795 9.664784 -26.078800 3.770847 0.119664 -3.154174 2.326361 17.555639 18.623793 4.261961 54.120702 20.675620 6.639612 -77.877727 88.497318 -73.619353 0.000000 0.000000 -0.000000 -2.023186 14.821652 -8.770213 -1.152136 -30.696270 -11.205296 0.000000 -0.000000 -0.000000 -3.703684 -40.402904 -12.327498 -12.888975 -8.433817 21.930409 
4.444664 0.465319 -4.855126 175.643029 3.305983 179.992592 0.000000 -0.000000 0.000000 0.776442 -4.782993 6.441089 -0.391983 -1.993551 4.113637 0.000000 0.000000 0.000000 0.747090 -1.947682 4.453161 1.359622 -21.406595 -3.141685 -0.189773 -1.628110 1.553335 -0.156317 -4.319506 -0.737259 -78.488722 -26.626159 19.812355 9.822381 -26.689777 3.668685 0.069117 -3.115320 2.263656 17.474521 18.735106 4.246930 54.012701 20.685384 6.789446 -74.958056 88.418919 -70.646960 0.000000 0.000000 -0.000000 -1.966721 14.632096 -9.165568 -1.365024 -30.460438 -10.482637 0.000000 -0.000000 -0.000000 -3.540191 -40.282833 -12.442399 -12.710595 -7.830612 21.941236 
4.530716 0.502660 -4.967807 175.603931 2.687035 -179.993163 0.000000 -0.000000 0.000000 0.577137 -4.814992 6.657454 -0.467287 -1.955768 4.086506 0.000000 0.000000 0.000000 0.669053 -1.917126 4.437978 1.277959 -20.709888 -3.519655 -0.246688 -1.586448 1.559844 -0.202785 -4.798563 -0.582732 -78.238844 -26.952980 19.530369 9.970818 -27.448376 3.641226 0.008341 -3.084267 2.217843 17.391492 18.821212 4.251274 53.927775 20.689550 6.839443 -90.464716 88.425375 -86.100603 0.000000 0.000000 -0.000000 -1.922115 14.463153 -9.664532 -1.627119 -30.117439 -9.558460 0.000000 -0.000000 -0.000000 -3.382885 -40.256304 -12.594047 -12.545105 -7.235386 22.004943 
4.626947 0.540699 -5.081059 175.547415 1.707395 -179.958707 0.000000 -0.000000 0.000000 0.325492 -4.866941 6.935841 -0.551085 -1.938156 4.089301 0.000000 0.000000 0.000000 0.585255 -1.892296 4.443478 1.219185 -20.044983 -3.785646 -0.308813 -1.555078 1.579798 -0.240671 -5.297592 -0.427375 -77.876837 -27.233254 19.105146 10.104994 -28.279615 3.630226 -0.060272 -3.064108 2.193027 17.325633 18.924219 4.231799 53.874389 20.687320 6.783937 -121.561240 88.118022 -117.152853 0.000000 0.000000 -0.000000 -1.897715 14.306141 -10.246505 -1.923265 -29.719807 -8.477779 0.000000 -0.000000 -0.000000 -3.249644 -40.365221 -12.774922 -12.391439 -6.668764 22.097222 
4.736354 0.579533 -5.195014 175.469134 0.303336 -179.908012 0.000000 -0.000000 0.000000 -0.005526 -4.950656 7.251414 -0.637003 -1.933759 4.111110 0.000000 0.000000 0.000000 0.502332 -1.878549 4.467785 1.166804 -19.371860 -4.020249 -0.371381 -1.534875 1.616201 -0.260364 -5.837308 -0.260329 -77.410356 -27.473313 18.574800 10.237371 -29.207955 3.647505 -0.134464 -3.058441 2.191288 17.279499 19.030171 4.185458 53.867483 20.678223 6.618289 -146.906227 87.033460 -142.468027 0.000000 0.000000 -0.000000 -1.890522 14.163576 -10.860525 -2.239386 -29.309488 -7.315943 0.000000 -0.000000 -0.000000 -3.122516 -40.545405 -12.999967 -12.265255 -6.146421 22.225412 
4.861542 0.619774 -5.310007 175.364064 -1.331316 -179.842734 0.000000 -0.000000 0.000000 -0.409620 -5.081938 7.650373 -0.728616 -1.941850 4.163580 0.000000 0.000000 0.000000 0.415828 -1.874777 4.507714 1.064750 -18.674990 -4.228724 -0.435296 -1.529567 1.665513 -0.252584 -6.411745 -0.084982 -76.830241 -27.677668 17.967801 10.350455 -30.212592 3.675344 -0.211477 -3.070890 2.210964 17.261961 19.155872 4.116739 53.916858 20.645846 6.337162 -160.365074 85.190040 -155.917958 0.000000 0.000000 -0.000000 -1.900626 14.038606 -11.434375 -2.537977 -28.913713 -6.201830 0.000000 -0.000000 -0.000000 -3.008937 -40.746806 -13.238307 -12.158967 -5.670748 22.335413 
5.004990 0.661997 -5.426306 175.226974 -3.072111 -179.771016 -0.000000 -0.000000 0.000000 -0.887353 -5.289345 8.075480 -0.826764 -1.971078 4.240487 0.000000 0.000000 0.000000 0.324428 -1.880671 4.558081 0.965808 -17.975122 -4.447893 -0.503811 -1.536824 1.724664 -0.232381 -6.994059 0.099773 -76.161213 -27.787483 17.531927 10.420734 -31.287635 3.698313 -0.294095 -3.094340 2.244860 17.251802 19.301407 4.009036 54.036453 20.574995 5.997205 -167.391468 82.727149 -162.959714 0.000000 0.000000 -0.000000 -1.931181 13.930339 -11.953693 -2.810983 -28.550530 -5.162874 0.000000 -0.000000 -0.000000 -2.933031 -40.925323 -13.456748 -12.040749 -5.238987 22.358059 
